# xmcd CD database file
#
# Track frame offsets:
#	150
#	14895
#	30022
#	43000
#	55697
#	71935
#	89027
#	101822
#	115875
#	134752
#	146530
#	161830
#	180245
#	194275
#	207587
#	224790
#	238292
#	250759
#	267102
#	284862
#	302035
#
# Disc length: 4251 seconds
#
# Revision: 0
# Processed by: cddbd v1.5.2PL0 Copyright (c) Steve Scherf et al.
# Submitted via: CDex 1.70beta2
#
DISCID=54109915
DTITLE=ChartBreakers - ChartBreakers CGC-530
DYEAR=1900
DGENRE=Country
TTITLE0=Ronnie Milsap - (Threr's) No Gettin' Over Me
TTITLE1=Kenny Rogers - A Love Song
TTITLE2=Eddy Raven - Bayou Boys
TTITLE3=Tanya Tucker - Can I See You Tonight
TTITLE4=Don Williams - 'Til The Rivers All Run Dry
TTITLE5=Johnny Cash - (Ghost) Riders In The Sky
TTITLE6=Bobby Dare - 500 Miles Away From Home
TTITLE7=Baille and The Boys - Fool Such As I
TTITLE8=Michael Martin Murphy and Holly Dunn - A Face In The Crowd
TTITLE9=Eddie Rabbitt - B-B-B-Burnin' Up With Love
TTITLE10=Ricky Van Shelton - After The Lights Go Out
TTITLE11=Juice Newton - Break It To Me Gently
TTITLE12=Reba McEntire - Cathy's Clown
TTITLE13=Anne Murray - Danny's Song
TTITLE14=Johnny Cash - A Boy Named Sue (Live)
TTITLE15=Charlie Rich - Behind Closed Doors
TTITLE16=Statler Brothers - Class Of '57
TTITLE17=Mickey Gilley - A Headache Tomorrow (Or A Heartache Tonight)
TTITLE18=Dan Seals - Big Wheels In The Moonlight
TTITLE19=Ricky Skaggs - Cajun Moon (Live)
TTITLE20=Willie Nelson - All Of Me
EXTD=YEAR: 1900
EXTT0=
EXTT1=
EXTT2=
EXTT3=
EXTT4=
EXTT5=
EXTT6=
EXTT7=
EXTT8=
EXTT9=
EXTT10=
EXTT11=
EXTT12=
EXTT13=
EXTT14=
EXTT15=
EXTT16=
EXTT17=
EXTT18=
EXTT19=
EXTT20=
PLAYORDER=
